{
  "accessors": [
    {
      "bufferView": 2,
      "componentType": 5126,
      "count": 65532,
      "max": [
        63.84645462036133,
        175.68798828125,
        21.26729965209961
      ],
      "min": [
        -63.86147689819336,
        96.93226623535156,
        -22.811660766601563
      ],
      "type": "VEC3"
    },
    {
      "bufferView": 2,
      "byteOffset": 786384,
      "componentType": 5126,
      "count": 65532,
      "max": [
        0.9999560713768005,
        0.9999988079071045,
        0.9999949932098389
      ],
      "min": [
        -0.9999844431877136,
        -0.9999887347221375,
        -0.9999970197677612
      ],
      "type": "VEC3"
    },
    {
      "bufferView": 1,
      "componentType": 5126,
      "count": 65532,
      "max": [
        0.2474803626537323,
        0.28693628311157227
      ],
      "min": [
        -0.5144421458244324,
        -0.29111170768737793
      ],
      "type": "VEC2"
    },
    {
      "bufferView": 1,
      "byteOffset": 524256,
      "componentType": 5126,
      "count": 65532,
      "max": [
        0.2474803626537323,
        0.28693628311157227
      ],
      "min": [
        -0.5144421458244324,
        -0.29111170768737793
      ],
      "type": "VEC2"
    },
    {
      "bufferView": 1,
      "byteOffset": 1048512,
      "componentType": 5126,
      "count": 65532,
      "max": [
        0.2474803626537323,
        0.28693628311157227
      ],
      "min": [
        -0.5144421458244324,
        -0.29111170768737793
      ],
      "type": "VEC2"
    },
    {
      "bufferView": 0,
      "componentType": 5125,
      "count": 378702,
      "type": "SCALAR"
    },
    {
      "bufferView": 2,
      "byteOffset": 1572768,
      "componentType": 5126,
      "count": 65532,
      "max": [
        59.45872116088867,
        166.4743194580078,
        19.56956672668457
      ],
      "min": [
        -60.126399993896484,
        96.07231140136719,
        -16.08852195739746
      ],
      "type": "VEC3"
    },
    {
      "bufferView": 2,
      "byteOffset": 2359152,
      "componentType": 5126,
      "count": 65532,
      "max": [
        0.999964714050293,
        0.9994080066680908,
        0.999995231628418
      ],
      "min": [
        -0.9999951720237732,
        -0.999798059463501,
        -0.9999997615814209
      ],
      "type": "VEC3"
    },
    {
      "bufferView": 1,
      "byteOffset": 1572768,
      "componentType": 5126,
      "count": 65532,
      "max": [
        0.2674585282802582,
        0.4382025897502899
      ],
      "min": [
        -0.26745855808258057,
        -0.35201817750930786
      ],
      "type": "VEC2"
    },
    {
      "bufferView": 1,
      "byteOffset": 2097024,
      "componentType": 5126,
      "count": 65532,
      "max": [
        0.2674585282802582,
        0.4382025897502899
      ],
      "min": [
        -0.26745855808258057,
        -0.35201817750930786
      ],
      "type": "VEC2"
    },
    {
      "bufferView": 1,
      "byteOffset": 2621280,
      "componentType": 5126,
      "count": 65532,
      "max": [
        0.2674585282802582,
        0.4382025897502899
      ],
      "min": [
        -0.26745855808258057,
        -0.35201817750930786
      ],
      "type": "VEC2"
    },
    {
      "bufferView": 0,
      "byteOffset": 1514808,
      "componentType": 5125,
      "count": 362079,
      "type": "SCALAR"
    },
    {
      "bufferView": 2,
      "byteOffset": 3145536,
      "componentType": 5126,
      "count": 65532,
      "max": [
        59.068050384521484,
        166.37586975097656,
        20.16322898864746
      ],
      "min": [
        -56.92963409423828,
        96.1222152709961,
        -15.594197273254395
      ],
      "type": "VEC3"
    },
    {
      "bufferView": 2,
      "byteOffset": 3931920,
      "componentType": 5126,
      "count": 65532,
      "max": [
        0.9996737241744995,
        0.99953293800354,
        0.9999998807907104
      ],
      "min": [
        -0.9999399185180664,
        -0.9999517798423767,
        -0.9999710917472839
      ],
      "type": "VEC3"
    },
    {
      "bufferView": 1,
      "byteOffset": 3145536,
      "componentType": 5126,
      "count": 65532,
      "max": [
        0.2677052319049835,
        0.4382025897502899
      ],
      "min": [
        -0.26767438650131226,
        -0.35201823711395264
      ],
      "type": "VEC2"
    },
    {
      "bufferView": 1,
      "byteOffset": 3669792,
      "componentType": 5126,
      "count": 65532,
      "max": [
        0.2677052319049835,
        0.4382025897502899
      ],
      "min": [
        -0.26767438650131226,
        -0.35201823711395264
      ],
      "type": "VEC2"
    },
    {
      "bufferView": 1,
      "byteOffset": 4194048,
      "componentType": 5126,
      "count": 65532,
      "max": [
        0.2677052319049835,
        0.4382025897502899
      ],
      "min": [
        -0.26767438650131226,
        -0.35201823711395264
      ],
      "type": "VEC2"
    },
    {
      "bufferView": 0,
      "byteOffset": 2963124,
      "componentType": 5125,
      "count": 343188,
      "type": "SCALAR"
    },
    {
      "bufferView": 2,
      "byteOffset": 4718304,
      "componentType": 5126,
      "count": 8796,
      "max": [
        59.068050384521484,
        157.54359436035156,
        10.78620719909668
      ],
      "min": [
        -59.00893020629883,
        111.39888000488281,
        -11.614459037780762
      ],
      "type": "VEC3"
    },
    {
      "bufferView": 2,
      "byteOffset": 4823856,
      "componentType": 5126,
      "count": 8796,
      "max": [
        0.9630745649337769,
        0.9960902333259583,
        0.9999949932098389
      ],
      "min": [
        -0.9957600831985474,
        -0.9997995495796204,
        -0.9999672770500183
      ],
      "type": "VEC3"
    },
    {
      "bufferView": 1,
      "byteOffset": 4718304,
      "componentType": 5126,
      "count": 8796,
      "max": [
        0.22323587536811829,
        0.25465089082717896
      ],
      "min": [
        -0.19812241196632385,
        -0.29111170768737793
      ],
      "type": "VEC2"
    },
    {
      "bufferView": 1,
      "byteOffset": 4788672,
      "componentType": 5126,
      "count": 8796,
      "max": [
        0.22323587536811829,
        0.25465089082717896
      ],
      "min": [
        -0.19812241196632385,
        -0.29111170768737793
      ],
      "type": "VEC2"
    },
    {
      "bufferView": 1,
      "byteOffset": 4859040,
      "componentType": 5126,
      "count": 8796,
      "max": [
        0.22323587536811829,
        0.25465089082717896
      ],
      "min": [
        -0.19812241196632385,
        -0.29111170768737793
      ],
      "type": "VEC2"
    },
    {
      "bufferView": 0,
      "byteOffset": 4335876,
      "componentType": 5125,
      "count": 42849,
      "type": "SCALAR"
    }
  ],
  "asset": {
    "extras": {
      "author": "yogaminggames (https://sketchfab.com/yogaminggames)",
      "license": "CC-BY-4.0 (http://creativecommons.org/licenses/by/4.0/)",
      "source": "https://sketchfab.com/3d-models/hoodie-2c674228f1e946b5b8f508f8f818e130",
      "title": "Hoodie"
    },
    "generator": "Sketchfab-14.59.0",
    "version": "2.0"
  },
  "bufferViews": [
    {
      "buffer": 0,
      "byteLength": 4507272,
      "name": "floatBufferViews",
      "target": 34963
    },
    {
      "buffer": 0,
      "byteLength": 4929408,
      "byteOffset": 4507272,
      "byteStride": 8,
      "name": "floatBufferViews",
      "target": 34962
    },
    {
      "buffer": 0,
      "byteLength": 4929408,
      "byteOffset": 9436680,
      "byteStride": 12,
      "name": "floatBufferViews",
      "target": 34962
    }
  ],
  "buffers": [
    {
      "byteLength": 14366088,
      "uri": "hoodie1.bin"
    }
  ],
  "materials": [
    {
      "doubleSided": true,
      "name": "FABRIC_3_FRONT_1850",
      "pbrMetallicRoughness": {
        "baseColorFactor": [
          0.2,
          0.4,
          0.8,
          1.0
        ],
        "metallicFactor": 0.0,
        "roughnessFactor": 0.9808378773704748
      }
    }
  ],
  "meshes": [
    {
      "name": "Hoodie_FABRIC 3_FRONT_1850_0",
      "primitives": [
        {
          "attributes": {
            "NORMAL": 1,
            "POSITION": 0,
            "TEXCOORD_0": 2,
            "TEXCOORD_1": 3,
            "TEXCOORD_2": 4
          },
          "indices": 5,
          "material": 0,
          "mode": 4
        }
      ]
    },
    {
      "name": "Hoodie_FABRIC 3_FRONT_1850_0",
      "primitives": [
        {
          "attributes": {
            "NORMAL": 7,
            "POSITION": 6,
            "TEXCOORD_0": 8,
            "TEXCOORD_1": 9,
            "TEXCOORD_2": 10
          },
          "indices": 11,
          "material": 0,
          "mode": 4
        }
      ]
    },
    {
      "name": "Hoodie_FABRIC 3_FRONT_1850_0",
      "primitives": [
        {
          "attributes": {
            "NORMAL": 13,
            "POSITION": 12,
            "TEXCOORD_0": 14,
            "TEXCOORD_1": 15,
            "TEXCOORD_2": 16
          },
          "indices": 17,
          "material": 0,
          "mode": 4
        }
      ]
    },
    {
      "name": "Hoodie_FABRIC 3_FRONT_1850_0",
      "primitives": [
        {
          "attributes": {
            "NORMAL": 19,
            "POSITION": 18,
            "TEXCOORD_0": 20,
            "TEXCOORD_1": 21,
            "TEXCOORD_2": 22
          },
          "indices": 23,
          "material": 0,
          "mode": 4
        }
      ]
    }
  ],
  "nodes": [
    {
      "children": [
        1
      ],
      "matrix": [
        1.0,
        0.0,
        0.0,
        0.0,
        0.0,
        2.220446049250313e-16,
        -1.0,
        0.0,
        0.0,
        1.0,
        2.220446049250313e-16,
        0.0,
        0.0,
        0.0,
        0.0,
        1.0
      ],
      "name": "Sketchfab_model"
    },
    {
      "children": [
        2
      ],
      "matrix": [
        0.0010000000474974513,
        0.0,
        0.0,
        0.0,
        0.0,
        0.0,
        0.0010000000474974513,
        0.0,
        0.0,
        -0.0010000000474974513,
        0.0,
        0.0,
        0.0,
        0.0,
        0.0,
        1.0
      ],
      "name": "3e6b850ceb1f451ca3e14011953cfc91.fbx"
    },
    {
      "children": [
        3
      ],
      "name": "RootNode"
    },
    {
      "children": [
        4,
        5,
        6,
        7
      ],
      "matrix": [
        10.0,
        0.0,
        0.0,
        0.0,
        0.0,
        10.0,
        0.0,
        0.0,
        0.0,
        0.0,
        10.0,
        0.0,
        0.0,
        0.0,
        0.0,
        1.0
      ],
      "name": "Hoodie"
    },
    {
      "mesh": 0,
      "name": "Hoodie_FABRIC 3_FRONT_1850_0"
    },
    {
      "mesh": 1,
      "name": "Hoodie_FABRIC 3_FRONT_1850_0"
    },
    {
      "mesh": 2,
      "name": "Hoodie_FABRIC 3_FRONT_1850_0"
    },
    {
      "mesh": 3,
      "name": "Hoodie_FABRIC 3_FRONT_1850_0"
    }
  ],
  "scene": 0,
  "scenes": [
    {
      "name": "Sketchfab_Scene",
      "nodes": [
        0
      ]
    }
  ]
}
